<svg id="V" xmlns="http://www.w3.org/2000/svg" viewBox="0 0 1595.08 2160"><defs><style>.cls-1{fill:#398797;}.cls-2{fill:#363844;}.cls-3{fill:#962d3e;}</style></defs><title>mark</title><path class="cls-1" d="M1541.42,1199.62c-24.31,87.71-88.19,133.51-102.68,143.4-102.8,70.19-217.16,36.58-232.46,31.82-55.45,165.16-112.57,330.32-168.93,495.45q19.65-58.51,39.68-116.55-52.92-226-105.15-451a784.14,784.14,0,0,1,108-41c63.67-19,102.4-30.63,154-30,53.15.67,156,14.81,193.61.43a72.36,72.36,0,0,0,15.25-8.38c15.09-10.76,31.1-30.82,25.82-44a16.44,16.44,0,0,0-6.28-7.31c-36.66-26.41-70.62-33.13-78.37-55.17-3-8.62.08-13.59-5.8-23.68-4.33-7.42-10-11.71-18.31-17.12-22.09-14.46-29.12-15.41-46-26.25-15.73-10.13-23.63-15.18-29.63-24.47-10.25-15.89-5.72-26.54-16.53-34.36-11.56-8.38-27.88-4.21-31.14-3.38a47.65,47.65,0,0,0-21.09,12.08c-16,15.69-10.09,31.93-20.62,40.75-11.4,9.54-32,2-54-6.31-37.81-14.38-70.5-27.21-97.24-38q13.47-57.49,26.89-114.91,143.47,19.6,286.88,39.24c13.7.88,104.5,8.15,159.72,84.77C1573.47,1084.07,1548.57,1173.8,1541.42,1199.62Z"/><path class="cls-2" d="M1077,1753.75q-20,57.91-39.69,116.54c-.12.36-.24.72-.35,1-22.13,65.63-44.1,131.41-66.58,196.35-4.41-13.07-8.78-26.18-13.19-39.24a3.88,3.88,0,0,0-.19-.64c-1.95-5.76-3.86-11.52-5.8-17.28q-42.68-127.15-85.37-254.3,53-226.65,106-453.47Q1024.33,1528,1077,1753.75Z"/><path class="cls-3" d="M971.89,1302.74q-53,226.79-106,453.47-64-190.67-128-381.37h-309c-7.19-8.9-60.89-77.74-39.88-148.52,23.48-79,133.11-136.45,254.3-101.57C551,1086.26,398.9,1007.13,268.49,850.87,11.06,542.39,38.86,174,47.12,91.46c12.28,77.94,62.76,335.37,291.4,546.42C552.39,835.3,792.63,872.63,873.74,881.69Q923.14,1092.74,971.89,1302.74Z"/></svg>